<mxfile host="app.diagrams.net" modified="2024-11-23T03:51:29.311Z" agent="Mozilla/5.0 (Windows NT 10.0; Win64; x64) AppleWebKit/537.36 (KHTML, like Gecko) Chrome/131.0.0.0 Safari/537.36 Edg/131.0.0.0" version="24.6.4" etag="cMAu2H-cIF8wJksG2WmX" type="github">
  <diagram name="Page-1" id="eJqT3n-v7Vk5XTxZzeV9">
    <mxGraphModel>
      <root>
        <mxCell id="0" />
        <mxCell id="1" parent="0" />
      </root>
    </mxGraphModel>
  </diagram>
</mxfile>
